<?xml version="1.0" encoding="UTF-8" standalone="no"?>
<!-- Created with Inkscape (http://www.inkscape.org/) -->

<svg
   xmlns:dc="http://purl.org/dc/elements/1.1/"
   xmlns:cc="http://creativecommons.org/ns#"
   xmlns:rdf="http://www.w3.org/1999/02/22-rdf-syntax-ns#"
   xmlns:svg="http://www.w3.org/2000/svg"
   xmlns="http://www.w3.org/2000/svg"
   xmlns:xlink="http://www.w3.org/1999/xlink"
   xmlns:sodipodi="http://sodipodi.sourceforge.net/DTD/sodipodi-0.dtd"
   xmlns:inkscape="http://www.inkscape.org/namespaces/inkscape"
   id="svg3734"
   height="24"
   width="24"
   version="1.1"
   sodipodi:docname="edit-redo.svg"
   inkscape:version="0.92.2 (5c3e80d, 2017-08-06)">
  <metadata
     id="metadata28">
    <rdf:RDF>
      <cc:Work
         rdf:about="">
        <dc:format>image/svg+xml</dc:format>
        <dc:type
           rdf:resource="http://purl.org/dc/dcmitype/StillImage" />
        <dc:title></dc:title>
      </cc:Work>
    </rdf:RDF>
  </metadata>
  <sodipodi:namedview
     pagecolor="#ffffff"
     bordercolor="#666666"
     borderopacity="1"
     objecttolerance="10"
     gridtolerance="10"
     guidetolerance="10"
     inkscape:pageopacity="0"
     inkscape:pageshadow="2"
     inkscape:window-width="724"
     inkscape:window-height="480"
     id="namedview26"
     showgrid="false"
     inkscape:zoom="9.8333333"
     inkscape:cx="12"
     inkscape:cy="12"
     inkscape:window-x="0"
     inkscape:window-y="28"
     inkscape:window-maximized="0"
     inkscape:current-layer="svg3734" />
  <defs
     id="defs3736">
    <linearGradient
       id="linearGradient4456">
      <stop
         id="stop4458"
         style="stop-color:#B9D9ED"
         offset="0" />
      <stop
         id="stop4460"
         style="stop-color:#80ADC9;stop-opacity:0"
         offset="1" />
    </linearGradient>
    <linearGradient
       id="linearGradient3390-178-986-453-4-5">
      <stop
         id="stop3624-8-6"
         style="stop-color:#336889"
         offset="0" />
      <stop
         id="stop3626-1-1"
         style="stop-color:#174A6A"
         offset="1" />
    </linearGradient>
    <linearGradient
       id="linearGradient3732"
       y2="176.96"
       xlink:href="#linearGradient3390-178-986-453-4-5"
       gradientUnits="userSpaceOnUse"
       x2="-46.583"
       gradientTransform="matrix(0.92957,0,0,0.99594,51.302,-181.74)"
       y1="198.91"
       x1="-39.666" />
    <linearGradient
       id="linearGradient7012-661-145-733-759-865-745-661-970-94-1-0">
      <stop
         id="stop3618-1-9"
         style="stop-color:#80ADC9"
         offset="0" />
      <stop
         id="stop3270-5-6"
         style="stop-color:#5287A7"
         offset=".5" />
      <stop
         id="stop3620-9-3"
         style="stop-color:#336889"
         offset="1" />
    </linearGradient>
    <linearGradient
       id="linearGradient4322"
       y2="197.04"
       xlink:href="#linearGradient7012-661-145-733-759-865-745-661-970-94-1-0"
       gradientUnits="userSpaceOnUse"
       x2="-42.818"
       gradientTransform="matrix(0.92957,0,0,0.99594,51.302,-181.74)"
       y1="178.97"
       x1="-47.659" />
    <linearGradient
       id="linearGradient4462"
       y2="16"
       xlink:href="#linearGradient4456"
       gradientUnits="userSpaceOnUse"
       x2="13"
       y1="-3"
       x1="5.5" />
    <linearGradient
       id="linearGradient2839"
       y2="18.844"
       xlink:href="#linearGradient4456"
       gradientUnits="userSpaceOnUse"
       x2="14.154"
       y1="-3"
       x1="5.5" />
    <linearGradient
       inkscape:collect="always"
       xlink:href="#linearGradient3390-178-986-453-4-5"
       id="linearGradient835"
       gradientUnits="userSpaceOnUse"
       gradientTransform="matrix(0.92957,0,0,0.99594,51.302,-181.74)"
       x1="-39.666"
       y1="198.91"
       x2="-46.583"
       y2="176.96" />
    <linearGradient
       inkscape:collect="always"
       xlink:href="#linearGradient7012-661-145-733-759-865-745-661-970-94-1-0"
       id="linearGradient837"
       gradientUnits="userSpaceOnUse"
       gradientTransform="matrix(0.92957,0,0,0.99594,51.302,-181.74)"
       x1="-47.659"
       y1="178.97"
       x2="-42.818"
       y2="197.04" />
  </defs>
  <g
     id="layer1"
     transform="matrix(-1,0,0,1,23.049503,7)">
    <path
       id="path3169-2-3"
       style="fill:none;stroke:url(#linearGradient835);stroke-width:5;stroke-linecap:round;stroke-linejoin:round;enable-background:new"
       d="M 7.7501,-0.62517 2.5,4.99993 l 5.2502,5.6251"
       inkscape:connector-curvature="0" />
    <path
       id="path3765"
       style="fill:none;stroke:url(#linearGradient3732);stroke-width:6;stroke-linecap:round;stroke-linejoin:round;enable-background:new"
       d="M 19.025,10.281 16.5,6.625 C 15.914,5.5475 14.287,5.0058 13,5 l -6.5,-7e-5"
       inkscape:connector-curvature="0" />
    <path
       id="path4277"
       style="fill:none;stroke:url(#linearGradient837);stroke-width:3;stroke-linecap:round;stroke-linejoin:round;enable-background:new"
       d="M 7.7501,-0.62517 2.5,4.99993 l 5.2502,5.6251"
       inkscape:connector-curvature="0" />
    <path
       id="path4279"
       style="fill:none;stroke:url(#linearGradient4322);stroke-width:4;stroke-linecap:round;stroke-linejoin:round;enable-background:new"
       d="M 19.025,10.281 16.5,6.625 C 15.873,5.7124 14.41,5.0058 13,5 l -6.5,-7e-5"
       inkscape:connector-curvature="0" />
    <path
       id="path4454"
       style="opacity:0.4;fill:none;stroke:url(#linearGradient2839);stroke-linecap:round;stroke-linejoin:round;enable-background:new"
       d="M 8.2275,9.6039 6.5,8 C 5.5,7 6.5,6.5 8,6.5 l 3.8324,-0.04122 c 1.2454,0.017784 3.1612,0.051221 3.6967,1.6076 l 1.9816,2.5556 c 0.65045,2.061 3.819,1.2457 2.8854,-1.31 l -2.227,-2.7379 c -0.845,-1.3426 -1.894,-2.6289 -4.169,-3.0741 h -5.5 c -1.5,0 -3,0 -2,-1.5 l 1.6451,-1.5626 c 1.5,-2 -0.5,-2.5 -1.5,-1.5 l -4.6451,5.0626 c -0.5,0.5 -0.5276,1.3333 0,2 l 4.7275,5.1039 c 1,1 3,0 1.5,-1.5 z"
       inkscape:connector-curvature="0" />
    <path
       id="path4464"
       style="opacity:0.4;fill:none;stroke:url(#linearGradient4462);stroke-linecap:round;stroke-linejoin:round;enable-background:new"
       d="M 6.5,2 8.1451,0.4786 c 1.5,-2 -0.5,-2.5 -1.5,-1.5 L 2,4 C 1.5,4.5 1.4724,5.3333 2,6 l 4.7688,5.2275 c 1,1 3,0 1.5,-1.5 L 6.5,7.9995"
       inkscape:connector-curvature="0" />
    <path
       id="path4466"
       style="opacity:0.6;fill:none;stroke:#b9d9ed;stroke-linecap:round;stroke-linejoin:round;enable-background:new"
       d="M 7.1397,-1.5161 2,4"
       inkscape:connector-curvature="0" />
  </g>
</svg>
